<svg width="210" height="130" viewBox="0 0 210 130" fill="none" xmlns="http://www.w3.org/2000/svg">
<g clip-path="url(#clip0)">
<path opacity="0.1" d="M209.218 83.4411C209.22 86.9726 208.799 90.4876 207.965 93.8862C207.159 97.1626 205.974 100.299 204.441 103.211C204.441 113.761 198.256 122.88 189.278 127.218C185.526 129.013 181.502 129.929 177.44 129.914H39.7163C32.3552 129.914 25.5337 127.627 19.9393 123.731C18.3382 122.621 16.8194 121.361 15.3983 119.963C9.18032 113.81 5.32515 105.306 5.32515 95.9142C1.8354 89.7264 -0.015023 82.503 -0.000402306 75.1249C-0.000402306 59.6762 7.93489 46.3924 19.3029 40.5275C20.8124 39.7491 22.3722 39.1069 23.9682 38.6069C24.5327 38.43 25.1033 38.2714 25.68 38.131C27.2173 37.754 28.7767 37.5077 30.3454 37.3939C30.9123 37.3532 31.4823 37.3301 32.0553 37.3244H32.3699C33.0026 37.3244 33.6299 37.3497 34.2536 37.3918L34.4584 36.9917C34.7095 36.5088 34.9668 36.0307 35.2302 35.5576C35.7056 34.6956 36.2043 33.8462 36.7261 33.0095C37.2723 32.1264 37.8423 31.2574 38.4361 30.4024L38.5879 30.1918C38.9244 29.7089 39.2682 29.2316 39.6193 28.7598C40.7166 27.2871 41.8749 25.8586 43.0941 24.4744C56.2818 9.59004 76.9421 0.00830078 100.168 0.00830078C118.241 0.00830078 134.76 5.80999 147.414 15.3959C152.208 12.2722 157.623 10.6331 163.131 10.6388C181.006 10.6388 195.501 27.5637 195.501 48.4414C195.499 49.7624 195.438 51.0824 195.318 52.3962C199.627 55.9084 203.139 60.5623 205.558 65.9654C207.977 71.3685 209.232 77.3622 209.218 83.4411Z" fill="#0975B8"/>
<path opacity="0.2" d="M43.0982 24.4661V28.7515H39.6234C40.7122 27.2802 41.8704 25.8517 43.0982 24.4661Z" fill="#0975B8"/>
<path opacity="0.2" d="M49.4753 23.3794H44.8099V28.7515H49.4753V23.3794Z" fill="#0975B8"/>
<path opacity="0.2" d="M55.8506 23.3794H51.1852V28.7515H55.8506V23.3794Z" fill="#0975B8"/>
<path opacity="0.2" d="M62.2277 23.3794H57.5624V28.7515H62.2277V23.3794Z" fill="#0975B8"/>
<path opacity="0.2" d="M68.603 23.3794H63.9377V28.7515H68.603V23.3794Z" fill="#0975B8"/>
<path opacity="0.2" d="M74.9801 23.3794H70.3148V28.7515H74.9801V23.3794Z" fill="#0975B8"/>
<path d="M81.3572 23.3794H76.6919V28.7515H81.3572V23.3794Z" fill="#0975B8"/>
<path opacity="0.2" d="M87.7326 23.3794H83.0672V28.7515H87.7326V23.3794Z" fill="#0975B8"/>
<path opacity="0.2" d="M94.1097 23.3794H89.4443V28.7515H94.1097V23.3794Z" fill="#0975B8"/>
<path opacity="0.2" d="M100.485 23.3794H95.8196V28.7515H100.485V23.3794Z" fill="#0975B8"/>
<path d="M106.862 23.3794H102.197V28.7515H106.862V23.3794Z" fill="#0975B8"/>
<path opacity="0.2" d="M113.239 23.3794H108.574V28.7515H113.239V23.3794Z" fill="#0975B8"/>
<path opacity="0.2" d="M119.615 23.3794H114.949V28.7515H119.615V23.3794Z" fill="#0975B8"/>
<path opacity="0.2" d="M125.992 23.3794H121.326V28.7515H125.992V23.3794Z" fill="#0975B8"/>
<path opacity="0.2" d="M132.369 23.3794H127.703V28.7515H132.369V23.3794Z" fill="#0975B8"/>
<path opacity="0.2" d="M138.744 23.3794H134.079V28.7515H138.744V23.3794Z" fill="#0975B8"/>
<path opacity="0.2" d="M145.121 23.3794H140.456V28.7515H145.121V23.3794Z" fill="#0975B8"/>
<path d="M151.496 23.3794H146.831V28.7515H151.496V23.3794Z" fill="#0975B8"/>
<path d="M157.874 23.3794H153.208V28.7515H157.874V23.3794Z" fill="#0975B8"/>
<path opacity="0.2" d="M164.251 23.3794H159.585V28.7515H164.251V23.3794Z" fill="#0975B8"/>
<path opacity="0.2" d="M170.626 23.3794H165.961V28.7515H170.626V23.3794Z" fill="#0975B8"/>
<path d="M177.003 23.3794H172.338V28.7515H177.003V23.3794Z" fill="#0975B8"/>
<path d="M183.378 23.3794H178.713V28.7515H183.378V23.3794Z" fill="#0975B8"/>
<path d="M36.7228 33.0076V35.5557H35.2269C35.7024 34.6881 36.201 33.8387 36.7228 33.0076Z" fill="#0975B8"/>
<path opacity="0.2" d="M43.0981 30.1836H38.4328V35.5557H43.0981V30.1836Z" fill="#0975B8"/>
<path d="M49.4753 30.1836H44.8099V35.5557H49.4753V30.1836Z" fill="#0975B8"/>
<path opacity="0.2" d="M55.8506 30.1836H51.1852V35.5557H55.8506V30.1836Z" fill="#0975B8"/>
<path opacity="0.7" d="M62.2277 30.1836H57.5624V35.5557H62.2277V30.1836Z" fill="#0975B8"/>
<path opacity="0.2" d="M68.603 30.1836H63.9377V35.5557H68.603V30.1836Z" fill="#0975B8"/>
<path opacity="0.4" d="M74.9801 30.1836H70.3148V35.5557H74.9801V30.1836Z" fill="#0975B8"/>
<path d="M81.3572 30.1836H76.6919V35.5557H81.3572V30.1836Z" fill="#0975B8"/>
<path opacity="0.4" d="M87.7326 30.1836H83.0672V35.5557H87.7326V30.1836Z" fill="#0975B8"/>
<path opacity="0.2" d="M94.1097 30.1836H89.4443V35.5557H94.1097V30.1836Z" fill="#0975B8"/>
<path opacity="0.4" d="M100.485 30.1836H95.8196V35.5557H100.485V30.1836Z" fill="#0975B8"/>
<path d="M106.862 30.1836H102.197V35.5557H106.862V30.1836Z" fill="#0975B8"/>
<path opacity="0.4" d="M113.239 30.1836H108.574V35.5557H113.239V30.1836Z" fill="#0975B8"/>
<path opacity="0.4" d="M119.615 30.1836H114.949V35.5557H119.615V30.1836Z" fill="#0975B8"/>
<path opacity="0.2" d="M125.992 30.1836H121.326V35.5557H125.992V30.1836Z" fill="#0975B8"/>
<path opacity="0.4" d="M132.369 30.1836H127.703V35.5557H132.369V30.1836Z" fill="#0975B8"/>
<path opacity="0.4" d="M138.744 30.1836H134.079V35.5557H138.744V30.1836Z" fill="#0975B8"/>
<path opacity="0.2" d="M145.121 30.1836H140.456V35.5557H145.121V30.1836Z" fill="#0975B8"/>
<path opacity="0.2" d="M151.496 30.1836H146.831V35.5557H151.496V30.1836Z" fill="#0975B8"/>
<path opacity="0.4" d="M157.874 30.1836H153.208V35.5557H157.874V30.1836Z" fill="#0975B8"/>
<path opacity="0.2" d="M164.251 30.1836H159.585V35.5557H164.251V30.1836Z" fill="#0975B8"/>
<path d="M170.626 30.1836H165.961V35.5557H170.626V30.1836Z" fill="#0975B8"/>
<path d="M177.003 30.1836H172.338V35.5557H177.003V30.1836Z" fill="#0975B8"/>
<path d="M183.378 30.1836H178.713V35.5557H183.378V30.1836Z" fill="#0975B8"/>
<path opacity="0.2" d="M23.9686 38.6071V42.3618H19.3033V40.5276C20.8128 39.7492 22.3726 39.1071 23.9686 38.6071Z" fill="#0975B8"/>
<path opacity="0.2" d="M30.3458 37.394V42.3618H25.6804V38.1311L30.3458 37.394Z" fill="#0975B8"/>
<path d="M36.7211 36.9897H32.0557V42.3618H36.7211V36.9897Z" fill="#0975B8"/>
<path opacity="0.7" d="M43.0981 36.9897H38.4328V42.3618H43.0981V36.9897Z" fill="#0975B8"/>
<path d="M49.4753 36.9897H44.8099V42.3618H49.4753V36.9897Z" fill="#0975B8"/>
<path opacity="0.7" d="M55.8506 36.9897H51.1852V42.3618H55.8506V36.9897Z" fill="#0975B8"/>
<path opacity="0.7" d="M62.2277 36.9897H57.5624V42.3618H62.2277V36.9897Z" fill="#0975B8"/>
<path opacity="0.2" d="M68.603 36.9897H63.9377V42.3618H68.603V36.9897Z" fill="#0975B8"/>
<path opacity="0.4" d="M74.9801 36.9897H70.3148V42.3618H74.9801V36.9897Z" fill="#0975B8"/>
<path opacity="0.4" d="M81.3572 36.9897H76.6919V42.3618H81.3572V36.9897Z" fill="#0975B8"/>
<path d="M87.7326 36.9897H83.0672V42.3618H87.7326V36.9897Z" fill="#0975B8"/>
<path opacity="0.2" d="M94.1097 36.9897H89.4443V42.3618H94.1097V36.9897Z" fill="#0975B8"/>
<path opacity="0.4" d="M100.485 36.9897H95.8196V42.3618H100.485V36.9897Z" fill="#0975B8"/>
<path d="M106.862 36.9897H102.197V42.3618H106.862V36.9897Z" fill="#0975B8"/>
<path opacity="0.2" d="M113.239 36.9897H108.574V42.3618H113.239V36.9897Z" fill="#0975B8"/>
<path opacity="0.4" d="M119.615 36.9897H114.949V42.3618H119.615V36.9897Z" fill="#0975B8"/>
<path opacity="0.2" d="M125.992 36.9897H121.326V42.3618H125.992V36.9897Z" fill="#0975B8"/>
<path d="M132.369 36.9897H127.703V42.3618H132.369V36.9897Z" fill="#0975B8"/>
<path opacity="0.2" d="M138.744 36.9897H134.079V42.3618H138.744V36.9897Z" fill="#0975B8"/>
<path opacity="0.7" d="M145.121 36.9897H140.456V42.3618H145.121V36.9897Z" fill="#0975B8"/>
<path opacity="0.7" d="M151.496 36.9897H146.831V42.3618H151.496V36.9897Z" fill="#0975B8"/>
<path opacity="0.4" d="M157.874 36.9897H153.208V42.3618H157.874V36.9897Z" fill="#0975B8"/>
<path opacity="0.2" d="M164.251 36.9897H159.585V42.3618H164.251V36.9897Z" fill="#0975B8"/>
<path d="M170.626 36.9897H165.961V42.3618H170.626V36.9897Z" fill="#0975B8"/>
<path d="M177.003 36.9897H172.338V42.3618H177.003V36.9897Z" fill="#0975B8"/>
<path d="M183.378 36.9897H178.713V42.3618H183.378V36.9897Z" fill="#0975B8"/>
<path opacity="0.2" d="M23.9686 43.7938H19.3033V49.1659H23.9686V43.7938Z" fill="#0975B8"/>
<path opacity="0.2" d="M30.3458 43.7938H25.6804V49.1659H30.3458V43.7938Z" fill="#0975B8"/>
<path opacity="0.2" d="M36.7211 43.7938H32.0557V49.1659H36.7211V43.7938Z" fill="#0975B8"/>
<path opacity="0.2" d="M43.0981 43.7938H38.4328V49.1659H43.0981V43.7938Z" fill="#0975B8"/>
<path d="M49.4753 43.7938H44.8099V49.1659H49.4753V43.7938Z" fill="#0975B8"/>
<path opacity="0.7" d="M55.8506 43.7938H51.1852V49.1659H55.8506V43.7938Z" fill="#0975B8"/>
<path opacity="0.7" d="M62.2277 43.7938H57.5624V49.1659H62.2277V43.7938Z" fill="#0975B8"/>
<path opacity="0.2" d="M68.603 43.7938H63.9377V49.1659H68.603V43.7938Z" fill="#0975B8"/>
<path opacity="0.2" d="M74.9801 43.7938H70.3148V49.1659H74.9801V43.7938Z" fill="#0975B8"/>
<path opacity="0.4" d="M81.3572 43.7938H76.6919V49.1659H81.3572V43.7938Z" fill="#0975B8"/>
<path opacity="0.4" d="M87.7326 43.7938H83.0672V49.1659H87.7326V43.7938Z" fill="#0975B8"/>
<path d="M94.1097 43.7938H89.4443V49.1659H94.1097V43.7938Z" fill="#0975B8"/>
<path opacity="0.2" d="M100.485 43.7938H95.8196V49.1659H100.485V43.7938Z" fill="#0975B8"/>
<path opacity="0.4" d="M106.862 43.7938H102.197V49.1659H106.862V43.7938Z" fill="#0975B8"/>
<path opacity="0.4" d="M113.239 43.7938H108.574V49.1659H113.239V43.7938Z" fill="#0975B8"/>
<path opacity="0.4" d="M119.615 43.7938H114.949V49.1659H119.615V43.7938Z" fill="#0975B8"/>
<path opacity="0.4" d="M125.992 43.7938H121.326V49.1659H125.992V43.7938Z" fill="#0975B8"/>
<path opacity="0.2" d="M132.369 43.7938H127.703V49.1659H132.369V43.7938Z" fill="#0975B8"/>
<path opacity="0.2" d="M138.744 43.7938H134.079V49.1659H138.744V43.7938Z" fill="#0975B8"/>
<path opacity="0.2" d="M145.121 43.7938H140.456V49.1659H145.121V43.7938Z" fill="#0975B8"/>
<path opacity="0.2" d="M151.496 43.7938H146.831V49.1659H151.496V43.7938Z" fill="#0975B8"/>
<path opacity="0.7" d="M157.874 43.7938H153.208V49.1659H157.874V43.7938Z" fill="#0975B8"/>
<path opacity="0.7" d="M164.251 43.7938H159.585V49.1659H164.251V43.7938Z" fill="#0975B8"/>
<path opacity="0.4" d="M170.626 43.7938H165.961V49.1659H170.626V43.7938Z" fill="#0975B8"/>
<path opacity="0.2" d="M177.003 43.7938H172.338V49.1659H177.003V43.7938Z" fill="#0975B8"/>
<path d="M183.378 43.7938H178.713V49.1659H183.378V43.7938Z" fill="#0975B8"/>
<path opacity="0.2" d="M23.9686 50.6H19.3033V55.9721H23.9686V50.6Z" fill="#0975B8"/>
<path opacity="0.2" d="M30.3458 50.6H25.6804V55.9721H30.3458V50.6Z" fill="#0975B8"/>
<path opacity="0.4" d="M36.7211 50.6H32.0557V55.9721H36.7211V50.6Z" fill="#0975B8"/>
<path opacity="0.2" d="M43.0981 50.6H38.4328V55.9721H43.0981V50.6Z" fill="#0975B8"/>
<path opacity="0.2" d="M49.4753 50.6H44.8099V55.9721H49.4753V50.6Z" fill="#0975B8"/>
<path opacity="0.7" d="M55.8506 50.6H51.1852V55.9721H55.8506V50.6Z" fill="#0975B8"/>
<path opacity="0.7" d="M62.2277 50.6H57.5624V55.9721H62.2277V50.6Z" fill="#0975B8"/>
<path opacity="0.2" d="M68.603 50.6H63.9377V55.9721H68.603V50.6Z" fill="#0975B8"/>
<path opacity="0.2" d="M74.9801 50.6H70.3148V55.9721H74.9801V50.6Z" fill="#0975B8"/>
<path opacity="0.4" d="M81.3572 50.6H76.6919V55.9721H81.3572V50.6Z" fill="#0975B8"/>
<path d="M87.7326 50.6H83.0672V55.9721H87.7326V50.6Z" fill="#0975B8"/>
<path opacity="0.2" d="M94.1097 50.6H89.4443V55.9721H94.1097V50.6Z" fill="#0975B8"/>
<path d="M100.485 50.6H95.8196V55.9721H100.485V50.6Z" fill="#0975B8"/>
<path d="M106.862 50.6H102.197V55.9721H106.862V50.6Z" fill="#0975B8"/>
<path d="M113.239 50.6H108.574V55.9721H113.239V50.6Z" fill="#0975B8"/>
<path opacity="0.2" d="M119.615 50.6H114.949V55.9721H119.615V50.6Z" fill="#0975B8"/>
<path d="M125.992 50.6H121.326V55.9721H125.992V50.6Z" fill="#0975B8"/>
<path opacity="0.2" d="M132.369 50.6H127.703V55.9721H132.369V50.6Z" fill="#0975B8"/>
<path opacity="0.2" d="M138.744 50.6H134.079V55.9721H138.744V50.6Z" fill="#0975B8"/>
<path opacity="0.2" d="M145.121 50.6H140.456V55.9721H145.121V50.6Z" fill="#0975B8"/>
<path opacity="0.2" d="M151.496 50.6H146.831V55.9721H151.496V50.6Z" fill="#0975B8"/>
<path opacity="0.2" d="M157.874 50.6H153.208V55.9721H157.874V50.6Z" fill="#0975B8"/>
<path opacity="0.7" d="M164.251 50.6H159.585V55.9721H164.251V50.6Z" fill="#0975B8"/>
<path opacity="0.2" d="M170.626 50.6H165.961V55.9721H170.626V50.6Z" fill="#0975B8"/>
<path opacity="0.2" d="M177.003 50.6H172.338V55.9721H177.003V50.6Z" fill="#0975B8"/>
<path d="M183.378 50.6H178.713V55.9721H183.378V50.6Z" fill="#0975B8"/>
<path opacity="0.2" d="M23.9686 57.4041H19.3033V62.7761H23.9686V57.4041Z" fill="#0975B8"/>
<path opacity="0.2" d="M30.3458 57.4041H25.6804V62.7761H30.3458V57.4041Z" fill="#0975B8"/>
<path opacity="0.2" d="M36.7211 57.4041H32.0557V62.7761H36.7211V57.4041Z" fill="#0975B8"/>
<path opacity="0.4" d="M43.0981 57.4041H38.4328V62.7761H43.0981V57.4041Z" fill="#0975B8"/>
<path opacity="0.2" d="M49.4753 57.4041H44.8099V62.7761H49.4753V57.4041Z" fill="#0975B8"/>
<path opacity="0.2" d="M55.8506 57.4041H51.1852V62.7761H55.8506V57.4041Z" fill="#0975B8"/>
<path opacity="0.7" d="M62.2277 57.4041H57.5624V62.7761H62.2277V57.4041Z" fill="#0975B8"/>
<path opacity="0.2" d="M68.603 57.4041H63.9377V62.7761H68.603V57.4041Z" fill="#0975B8"/>
<path opacity="0.2" d="M74.9801 57.4041H70.3148V62.7761H74.9801V57.4041Z" fill="#0975B8"/>
<path opacity="0.2" d="M81.3572 57.4041H76.6919V62.7761H81.3572V57.4041Z" fill="#0975B8"/>
<path d="M87.7326 57.4041H83.0672V62.7761H87.7326V57.4041Z" fill="#0975B8"/>
<path opacity="0.2" d="M94.1097 57.4041H89.4443V62.7761H94.1097V57.4041Z" fill="#0975B8"/>
<path d="M100.485 57.4041H95.8196V62.7761H100.485V57.4041Z" fill="#0975B8"/>
<path d="M106.862 57.4041H102.197V62.7761H106.862V57.4041Z" fill="#0975B8"/>
<path opacity="0.2" d="M113.239 57.4041H108.574V62.7761H113.239V57.4041Z" fill="#0975B8"/>
<path opacity="0.2" d="M119.615 57.4041H114.949V62.7761H119.615V57.4041Z" fill="#0975B8"/>
<path opacity="0.2" d="M125.992 57.4041H121.326V62.7761H125.992V57.4041Z" fill="#0975B8"/>
<path opacity="0.2" d="M132.369 57.4041H127.703V62.7761H132.369V57.4041Z" fill="#0975B8"/>
<path opacity="0.2" d="M138.744 57.4041H134.079V62.7761H138.744V57.4041Z" fill="#0975B8"/>
<path opacity="0.2" d="M145.121 57.4041H140.456V62.7761H145.121V57.4041Z" fill="#0975B8"/>
<path opacity="0.2" d="M151.496 57.4041H146.831V62.7761H151.496V57.4041Z" fill="#0975B8"/>
<path opacity="0.2" d="M157.874 57.4041H153.208V62.7761H157.874V57.4041Z" fill="#0975B8"/>
<path opacity="0.2" d="M164.251 57.4041H159.585V62.7761H164.251V57.4041Z" fill="#0975B8"/>
<path opacity="0.2" d="M170.626 57.4041H165.961V62.7761H170.626V57.4041Z" fill="#0975B8"/>
<path opacity="0.4" d="M177.003 57.4041H172.338V62.7761H177.003V57.4041Z" fill="#0975B8"/>
<path d="M183.378 57.4041H178.713V62.7761H183.378V57.4041Z" fill="#0975B8"/>
<path opacity="0.7" d="M23.9686 64.2103H19.3033V69.5824H23.9686V64.2103Z" fill="#0975B8"/>
<path opacity="0.7" d="M30.3458 64.2103H25.6804V69.5824H30.3458V64.2103Z" fill="#0975B8"/>
<path opacity="0.7" d="M36.7211 64.2103H32.0557V69.5824H36.7211V64.2103Z" fill="#0975B8"/>
<path opacity="0.7" d="M43.0981 64.2103H38.4328V69.5824H43.0981V64.2103Z" fill="#0975B8"/>
<path opacity="0.7" d="M49.4753 64.2103H44.8099V69.5824H49.4753V64.2103Z" fill="#0975B8"/>
<path opacity="0.2" d="M55.8506 64.2103H51.1852V69.5824H55.8506V64.2103Z" fill="#0975B8"/>
<path opacity="0.2" d="M62.2277 64.2103H57.5624V69.5824H62.2277V64.2103Z" fill="#0975B8"/>
<path opacity="0.2" d="M68.603 64.2103H63.9377V69.5824H68.603V64.2103Z" fill="#0975B8"/>
<path opacity="0.2" d="M74.9801 64.2103H70.3148V69.5824H74.9801V64.2103Z" fill="#0975B8"/>
<path opacity="0.2" d="M81.3572 64.2103H76.6919V69.5824H81.3572V64.2103Z" fill="#0975B8"/>
<path opacity="0.2" d="M87.7326 64.2103H83.0672V69.5824H87.7326V64.2103Z" fill="#0975B8"/>
<path d="M94.1097 64.2103H89.4443V69.5824H94.1097V64.2103Z" fill="#0975B8"/>
<path opacity="0.2" d="M100.485 64.2103H95.8196V69.5824H100.485V64.2103Z" fill="#0975B8"/>
<path opacity="0.2" d="M106.862 64.2103H102.197V69.5824H106.862V64.2103Z" fill="#0975B8"/>
<path opacity="0.2" d="M113.239 64.2103H108.574V69.5824H113.239V64.2103Z" fill="#0975B8"/>
<path d="M119.615 64.2103H114.949V69.5824H119.615V64.2103Z" fill="#0975B8"/>
<path opacity="0.2" d="M125.992 64.2103H121.326V69.5824H125.992V64.2103Z" fill="#0975B8"/>
<path opacity="0.2" d="M132.369 64.2103H127.703V69.5824H132.369V64.2103Z" fill="#0975B8"/>
<path opacity="0.2" d="M138.744 64.2103H134.079V69.5824H138.744V64.2103Z" fill="#0975B8"/>
<path opacity="0.2" d="M145.121 64.2103H140.456V69.5824H145.121V64.2103Z" fill="#0975B8"/>
<path opacity="0.2" d="M151.496 64.2103H146.831V69.5824H151.496V64.2103Z" fill="#0975B8"/>
<path opacity="0.2" d="M157.874 64.2103H153.208V69.5824H157.874V64.2103Z" fill="#0975B8"/>
<path opacity="0.2" d="M164.251 64.2103H159.585V69.5824H164.251V64.2103Z" fill="#0975B8"/>
<path opacity="0.2" d="M170.626 64.2103H165.961V69.5824H170.626V64.2103Z" fill="#0975B8"/>
<path opacity="0.2" d="M177.003 64.2103H172.338V69.5824H177.003V64.2103Z" fill="#0975B8"/>
<path d="M183.378 64.2103H178.713V69.5824H183.378V64.2103Z" fill="#0975B8"/>
<path d="M134.331 83.974C137.853 83.974 140.708 80.6863 140.708 76.6308C140.708 72.5753 137.853 69.2876 134.331 69.2876C130.809 69.2876 127.954 72.5753 127.954 76.6308C127.954 80.6863 130.809 83.974 134.331 83.974Z" fill="#767D9F"/>
<path d="M134 67.2891C134.636 70.4872 135.177 73.7092 135.62 76.955C135.754 77.9195 135.873 78.9367 135.569 79.8485C135.315 80.6087 134.797 81.2026 134.391 81.868C133.985 82.5335 133.678 83.3864 133.925 84.1487C134.172 84.911 134.893 85.328 135.58 85.5428C137.548 86.1535 139.646 85.7092 141.604 85.0479C142.491 84.785 143.341 84.3795 144.13 83.8434C144.96 83.2369 145.641 82.3945 146.266 81.5269C149.121 77.5405 150.99 72.7559 152.749 68.0009C151.619 68.1193 150.48 67.9264 149.427 67.4379C148.374 66.9494 147.437 66.1794 146.694 65.1916C145.973 64.2166 145.445 62.8583 145.851 61.6664C144.66 62.4182 143.247 62.4687 141.965 62.9826C141.17 63.3322 140.404 63.7658 139.679 64.2777C138.803 64.8603 137.933 65.4541 137.067 66.0592C136.078 66.7458 135.15 67.3565 134 67.2891Z" fill="#AE6E79"/>
<path d="M147.338 72.8022C146.22 75.3061 144.766 77.7131 142.691 79.2041C140.615 80.6951 137.82 81.0994 135.741 79.6253C134.717 78.9051 133.942 77.81 133.047 76.8876C132.153 75.9653 131.036 75.1756 129.834 75.2956C128.51 75.4283 127.473 76.6181 126.586 77.7573C125.24 79.4884 123.94 81.2931 122.987 83.3421C121.158 87.2801 120.725 91.8836 120.805 96.348C120.886 100.812 121.447 105.254 121.46 109.718C121.478 115.21 120.67 120.658 119.852 126.068C127.369 125.003 134.894 127.332 142.427 128.214C147.248 128.785 152.105 128.772 156.952 128.757C157.804 128.757 158.711 128.732 159.421 128.189C159.854 127.825 160.205 127.345 160.443 126.791C161.112 125.369 161.381 123.748 161.568 122.145C162.041 118.098 162.056 114 162.069 109.914C162.102 100.016 162.133 90.083 161.041 80.2633C160.772 77.8479 160.428 75.4198 159.624 73.1602C158.819 70.9006 157.506 68.8221 155.67 67.6112C154.49 66.8321 151.756 65.4759 150.366 66.2614C148.806 67.1374 148.086 71.1259 147.338 72.8022Z" fill="#767D9F"/>
<path d="M147.894 100.752C147.61 94.6445 146.456 88.1268 148.912 82.7063C149.516 81.3753 147.351 79.7138 148.02 78.425C148.837 76.8537 149.456 75.157 149.86 73.3856C149.999 72.777 150.11 72.1326 149.979 71.5219C149.735 70.4079 148.779 69.7446 147.967 69.0665C147.071 68.3168 146.61 66.0319 146.321 64.7958C146.032 63.5596 148.62 65.0485 149.66 64.6083C151.105 63.9997 152.941 64.383 154.382 65C155.187 65.3412 156.061 65.3707 156.919 65.3959C158.585 65.4465 160.257 65.4949 161.91 65.2591C162.652 65.1517 163.397 64.9895 164.143 65.0379C166.047 65.1622 167.702 66.6616 168.828 68.4347C169.955 70.2079 170.672 72.2737 171.595 74.1943C172.365 75.7948 173.283 77.3068 173.94 78.9725C174.521 80.4466 174.889 82.0303 175.253 83.6055L176.191 87.6466C176.355 88.2247 176.433 88.8307 176.422 89.4387C176.374 90.0852 176.125 90.6875 175.873 91.2624C174.919 93.3933 173.774 95.404 172.459 97.2621C170.485 100.048 168.089 102.56 166.917 105.896C166.46 107.195 166.206 108.577 165.974 109.954C165.037 115.463 164.372 121.027 163.98 126.622C161.843 125.484 159.603 124.621 157.301 124.051C156.154 123.768 154.994 123.557 153.826 123.419C152.804 123.297 151.486 123.529 150.513 123.209C148.885 122.676 148.706 119.506 148.459 117.847C148.064 115.204 147.985 112.515 147.971 109.845C147.952 106.808 148.035 103.778 147.894 100.752Z" fill="#4C4981"/>
<path d="M112.149 89.3313C112.919 94.3854 113.768 99.4543 115.441 104.203C115.399 104.249 115.357 104.292 115.315 104.334C115.167 104.479 115.013 104.616 114.852 104.755C114.477 105.058 114.066 105.315 113.755 105.711C113.637 105.862 113.544 106.037 113.481 106.227C113.423 106.375 113.393 106.535 113.393 106.697C113.393 106.86 113.423 107.02 113.481 107.168C112.608 107.612 111.595 107.476 110.617 107.433C109.774 107.398 108.956 107.433 108.279 107.966C107.339 108.712 107.056 110.144 106.904 111.445C106.848 111.92 106.8 112.395 106.76 112.871C106.721 113.313 106.689 113.757 106.665 114.202C106.582 115.674 106.57 117.15 106.63 118.624C106.64 118.894 106.652 119.163 106.668 119.433C103.68 119.351 100.957 117.556 98.38 115.813C97.7911 115.415 97.1839 114.996 96.8017 114.339C96.4495 113.693 96.3004 112.928 96.3792 112.172C96.3792 112.064 96.3957 111.961 96.4085 111.852C96.4904 111.227 96.6308 110.614 96.8273 110.024C97.6335 107.51 98.8219 105.182 100.337 103.148C100.992 102.268 101.729 101.406 102.034 100.301C102.167 99.8186 102.217 99.3069 102.352 98.8267C102.959 96.7461 105.15 95.7627 105.9 93.7432C106.083 93.2609 106.167 92.7323 106.394 92.269C106.598 91.884 106.861 91.545 107.171 91.2687C107.305 91.1403 107.444 91.016 107.581 90.8918C108.866 89.7322 110.104 88.5072 111.295 87.217C111.517 86.977 111.737 86.7341 111.954 86.4884C111.925 87.4415 111.99 88.3954 112.149 89.3313Z" fill="#4C4981"/>
<path d="M130.578 74.3838C130.315 74.7039 130.03 75.0051 129.75 75.3041L129.675 75.382L129.379 75.6979C128.841 76.2323 128.376 76.8562 127.998 77.549L127.967 77.6079C127.034 79.5306 127.38 81.8976 127.639 84.0814C127.962 86.8027 128.106 89.548 128.073 92.2943C128.025 96.0849 127.638 99.8502 127.63 103.637C127.63 104.496 127.647 105.353 127.68 106.212C127.733 107.608 127.824 109.002 127.934 110.396C128.053 111.925 128.195 113.452 128.329 114.979C128.435 116.16 128.536 117.339 128.62 118.519C128.662 119.129 128.702 119.738 128.735 120.349C128.773 121.065 128.804 121.783 128.823 122.499C128.835 122.954 128.843 123.407 128.843 123.861C128.843 124.12 128.843 124.377 128.843 124.634C128.843 125.127 128.831 125.618 128.808 126.108C128.784 126.739 128.746 127.37 128.696 128.004C128.64 128.692 128.539 129.444 128.119 129.928C128.093 129.958 128.066 129.985 128.038 130.013L127.446 129.928C123.361 129.365 119.237 129.281 115.138 129.676C115.227 128.964 115.309 128.254 115.39 127.54C115.427 127.203 115.463 126.864 115.498 126.525C115.538 126.138 115.576 125.75 115.613 125.363C115.655 124.942 115.694 124.521 115.73 124.099C115.825 123.014 115.909 121.928 115.981 120.842C116.087 119.257 116.167 117.669 116.222 116.078C116.249 115.319 116.27 114.558 116.284 113.797C116.305 112.854 116.315 111.91 116.313 110.965C116.313 110.047 116.307 109.127 116.293 108.206C116.293 107.903 116.282 107.6 116.26 107.299C116.245 107.028 116.212 106.758 116.164 106.492C116.028 105.879 115.844 105.281 115.615 104.706C115.575 104.597 115.536 104.496 115.498 104.38C115.476 104.323 115.456 104.264 115.436 104.207C116.489 103.127 117.239 101.68 117.959 100.257C119.128 97.9633 120.324 95.5689 120.52 92.9198C120.715 90.2706 119.572 87.295 117.374 86.4863C116.776 86.2757 116.143 86.2167 115.527 86.0925C114.946 85.9746 113.733 85.7071 113.06 85.227C112.694 85.6594 112.328 86.0841 111.963 86.501C111.985 85.8648 112.12 85.2406 112.36 84.6668L112.619 84.6816C112.598 84.6141 112.588 84.5427 112.59 84.471C112.59 84.2457 112.725 83.9908 113.014 83.7087C113.876 82.8663 115.231 82.6789 115.774 81.5396C116.001 81.0658 116.039 80.5014 116.222 80.0044C116.747 78.5872 118.254 78.0649 119.161 76.9319C120.068 75.799 120.295 74.1943 121.028 72.9308C121.576 72.0081 122.336 71.279 123.223 70.8249C123.296 70.7849 123.371 70.7449 123.446 70.7091C124.964 69.9615 126.767 69.7909 128.34 69.7951C128.951 69.7951 130.534 69.8162 131.31 70.1721C131.436 70.2238 131.551 70.3048 131.648 70.41C132.475 71.4461 131.189 73.6341 130.578 74.3838Z" fill="#4C4981"/>
<path d="M112.422 84.5193C113.834 84.0296 115.318 83.8681 116.785 84.0441C118.253 84.2202 119.675 84.7303 120.97 85.5449C122.286 86.3872 123.468 87.5623 124.192 89.0786C125.28 91.3529 125.233 94.0948 125.156 96.6913C125.117 97.9906 125.068 99.3363 124.571 100.503C123.995 101.853 122.908 102.779 121.8 103.538C121.106 104.048 120.345 104.427 119.547 104.66C118.318 104.967 117.041 104.706 115.803 104.449C114.457 104.163 113.012 103.818 112.078 102.664C111.529 101.994 111.229 101.124 110.933 100.273C110.508 99.045 110.081 97.818 109.653 96.5923C108.912 94.4633 108.662 92.6923 109.64 90.618C110.085 89.6724 110.628 88.7879 111.067 87.8361C111.286 87.3517 112.072 84.6436 112.422 84.5193Z" fill="#4C4981"/>
<path d="M189.284 120.924V127.22C185.532 129.015 181.508 129.931 177.446 129.916H128.124C128.098 129.945 128.071 129.973 128.044 130L127.451 129.916H39.7166C32.3556 129.916 25.5341 127.629 19.9397 123.733V114.12L62.1344 108.512H62.1673L86.7395 110.908L93.0983 111.54L96.4012 111.862L103.237 112.53L106.754 112.873L111.875 113.374L112.595 113.444L116.286 113.804L121.293 114.277L128.334 114.964L140.072 116.112L148.329 116.918L161.888 118.243L164.466 118.493L164.744 118.521L164.986 118.544L168.391 118.877L172.129 119.243L172.563 119.285L189.284 120.924Z" fill="#504F60"/>
<path d="M139.722 120.692L86.8438 110.3L84.7936 122.238L109.033 125.58L116.496 126.656L137.027 122L139.722 120.692Z" fill="#9C9CA1"/>
<path d="M112.35 126.058L138.843 120.323C138.975 120.294 139.112 120.299 139.243 120.338C139.373 120.377 139.495 120.448 139.599 120.547C139.703 120.647 139.786 120.771 139.843 120.912C139.9 121.053 139.93 121.206 139.929 121.362C139.93 121.608 139.855 121.847 139.718 122.037C139.582 122.227 139.392 122.355 139.181 122.4L113.309 127.978L112.35 126.058Z" fill="#9C9CA1"/>
<path d="M123.843 108.025C124.668 107.937 125.503 107.787 126.246 107.366C127.16 106.842 127.872 105.938 128.718 105.273C130.58 103.799 133.071 103.601 135.205 104.447C137.34 105.294 139.121 107.107 140.368 109.272C141.197 110.714 141.818 112.555 141.233 114.147C141.032 114.634 140.779 115.089 140.48 115.503L138.954 117.799C138.665 118.281 138.316 118.713 137.919 119.081C137.349 119.559 136.639 119.755 135.94 119.873C134.084 120.184 132.195 120.008 130.324 120.151C127.111 120.397 123.973 121.589 120.752 121.549C118.901 121.526 117.074 121.096 115.266 120.667L107.261 118.771C105.867 118.443 104.293 117.963 103.636 116.508C103.342 115.853 103.287 115.095 103.252 114.358C103.157 112.327 103.252 110.07 104.474 108.606C105.622 107.233 107.438 106.8 108.81 105.785C110.489 104.54 111.043 104.942 112.813 105.877C116.267 107.678 120.067 108.418 123.843 108.025Z" fill="#AE6E79"/>
<path opacity="0.05" d="M123.843 108.025C124.668 107.937 125.503 107.787 126.246 107.366C127.16 106.842 127.872 105.938 128.718 105.273C130.58 103.799 133.071 103.601 135.205 104.447C137.34 105.294 139.121 107.107 140.368 109.272C141.197 110.714 141.818 112.555 141.233 114.147C141.032 114.634 140.779 115.089 140.48 115.503L138.954 117.799C138.665 118.281 138.316 118.713 137.919 119.081C137.349 119.559 136.639 119.755 135.94 119.873C134.084 120.184 132.195 120.008 130.324 120.151C127.111 120.397 123.973 121.589 120.752 121.549C118.901 121.526 117.074 121.096 115.266 120.667L107.261 118.771C105.867 118.443 104.293 117.963 103.636 116.508C103.342 115.853 103.287 115.095 103.252 114.358C103.157 112.327 103.252 110.07 104.474 108.606C105.622 107.233 107.438 106.8 108.81 105.785C110.489 104.54 111.043 104.942 112.813 105.877C116.267 107.678 120.067 108.418 123.843 108.025Z" fill="black"/>
<path d="M155.988 105.138C153.742 106.138 151.484 107.143 149.132 107.739C145.189 108.739 141.063 108.581 137.151 109.725C135.085 110.331 133.031 111.308 130.908 111.11C129.958 111.022 129.042 110.689 128.119 110.436C122.93 108.962 117.032 109.44 112.819 113.231C111.377 114.526 110.198 116.141 109.128 117.864C108.899 118.236 108.744 118.662 108.675 119.111C108.605 119.559 108.623 120.02 108.726 120.461C108.83 120.901 109.016 121.309 109.272 121.657C109.529 122.005 109.848 122.283 110.209 122.471C111.848 123.339 113.603 123.878 115.399 124.066C117.8 124.31 120.213 123.918 122.601 123.527C126.145 122.947 129.691 122.366 133.227 121.715C134.496 121.482 135.765 121.24 137.041 121.054C146.228 119.717 155.58 121.343 164.79 120.227C165.721 120.113 166.668 119.966 167.515 119.509C169.659 118.35 170.719 115.297 170.277 112.614C169.834 109.931 168.126 107.701 166.07 106.332C164.348 105.18 162.49 104.715 160.571 104.226C158.79 103.748 157.704 104.38 155.988 105.138Z" fill="#AE6E79"/>
<path opacity="0.1" d="M175.69 89.0996C176.703 90.6285 176.919 92.6796 176.809 94.5938C176.7 96.5081 176.305 98.4013 176.246 100.324C176.166 102.96 176.718 105.589 176.625 108.217C176.559 110.055 176.18 111.858 175.732 113.623C175.204 115.705 174.439 117.944 172.769 118.944C170.553 120.273 165.904 119.525 163.572 120.566C163.784 119.043 165.818 116.838 166.03 115.316C166.176 114.263 166.325 113.18 166.167 112.125C165.966 110.78 165.28 109.586 164.467 108.592C163.172 107.01 161.482 105.82 159.626 105.433C157.769 105.045 153.225 105.363 151.74 106.713C151.557 105.319 154.958 103.976 156.154 103.674C156.751 103.521 157.435 103.607 157.912 103.171C158.826 102.346 158.163 100.701 158.206 99.3805C158.241 98.3276 158.775 97.3631 158.883 96.3101C159.066 94.6254 158.111 92.9091 158.486 91.256C158.625 90.6453 158.934 90.1083 159.148 89.5271C159.799 87.7476 159.514 85.7176 159.167 83.8265C158.951 82.6388 158.74 81.2994 159.315 80.2865C159.847 79.341 161.358 82.7083 162.325 82.5524C165.52 82.0365 168.411 79.3094 170.992 81.5416C172.307 82.6788 172.479 83.8581 173.003 85.4817C173.514 87.0274 174.836 87.8192 175.69 89.0996Z" fill="black"/>
<path d="M176.239 89.0997C177.252 90.6286 177.468 92.6797 177.358 94.594C177.248 96.5082 176.853 98.4014 176.795 100.324C176.714 102.961 177.266 105.589 177.173 108.217C177.107 110.055 176.729 111.858 176.281 113.623C175.752 115.705 174.988 117.944 173.318 118.944C171.101 120.273 166.453 119.525 164.121 120.566C164.333 119.043 166.367 116.838 166.579 115.316C166.725 114.263 166.873 113.18 166.716 112.125C166.515 110.78 165.829 109.586 165.015 108.592C163.72 107.01 162.031 105.82 160.174 105.433C158.318 105.045 153.773 105.363 152.288 106.713C152.105 105.319 155.507 103.976 156.703 103.674C157.299 103.521 157.983 103.607 158.461 103.171C159.375 102.346 158.711 100.701 158.755 99.3806C158.79 98.3277 159.324 97.3632 159.432 96.3102C159.615 94.6255 158.66 92.9092 159.035 91.2561C159.174 90.6454 159.483 90.1084 159.697 89.5272C160.348 87.7477 160.063 85.7177 159.715 83.8266C159.499 82.6389 159.289 81.2996 159.863 80.2866C160.396 79.3411 161.436 78.9831 162.404 78.8251C165.643 78.3206 168.925 79.2957 171.548 81.5417C172.863 82.6789 173.035 83.8582 173.559 85.4818C174.062 87.0275 175.385 87.8193 176.239 89.0997Z" fill="#4C4981"/>
<path d="M55.2306 79.122L65.1739 121.437C65.2959 121.956 65.5523 122.419 65.9087 122.766C66.2652 123.112 66.7049 123.325 67.1692 123.377L111.924 128.328C112.289 128.368 112.657 128.308 112.997 128.151C113.337 127.994 113.64 127.745 113.879 127.426C114.119 127.107 114.289 126.726 114.374 126.316C114.46 125.906 114.459 125.478 114.371 125.068L103.482 74.0258C103.353 73.4191 103.041 72.8849 102.601 72.5182C102.162 72.1516 101.624 71.9761 101.083 72.0231L57.2661 75.7968C56.9297 75.8269 56.6032 75.9421 56.3099 76.1343C56.0165 76.3264 55.7637 76.5906 55.5693 76.9082C55.3748 77.2258 55.2437 77.5889 55.1852 77.9716C55.1266 78.3542 55.1421 78.747 55.2306 79.122Z" fill="#9C9CA1"/>
<path d="M143.949 87.3791C146.666 87.3791 148.868 84.8099 148.868 81.6406C148.868 78.4713 146.666 75.9021 143.949 75.9021C141.232 75.9021 139.029 78.4713 139.029 81.6406C139.029 84.8099 141.232 87.3791 143.949 87.3791Z" fill="white"/>
<path d="M147.989 71.1723C147.989 71.1723 149.026 74.7228 145.966 76.2159L145.575 77.0034L147.491 79.1809C147.491 79.1809 149.854 74.2174 149.598 72.4548C149.598 72.4548 149.232 70.6648 147.989 71.1723Z" fill="white"/>
<path d="M144.514 87.3791C147.134 87.3791 149.258 84.9334 149.258 81.9165C149.258 78.8996 147.134 76.4539 144.514 76.4539C141.894 76.4539 139.77 78.8996 139.77 81.9165C139.77 84.9334 141.894 87.3791 144.514 87.3791Z" fill="#0975B8"/>
<path d="M149.622 73.2613L148.868 71.8293L147.771 71.6503C148.005 66.9353 146.943 65.5306 146.943 65.5306L146.696 65.5033L145.62 65.3832L143.598 62.9657V62.2792C146.44 62.6688 148.011 64.2229 148.859 66.0445C150.359 69.2412 149.622 73.2613 149.622 73.2613Z" fill="#0975B8"/>
<path opacity="0.1" d="M146.705 64.6357V65.5033L145.63 65.3832L143.607 62.9657C143.607 62.9657 146.736 63.7722 146.705 64.6357Z" fill="black" stroke="#4C4981" stroke-miterlimit="10"/>
<path opacity="0.1" d="M149.622 73.2613L148.868 71.8293V66.0529C150.359 69.2412 149.622 73.2613 149.622 73.2613Z" fill="black" stroke="#4C4981" stroke-miterlimit="10"/>
<path d="M135.748 84.1621C137.01 83.3229 136.956 80.4936 135.627 77.8426C134.297 75.1916 132.197 73.7228 130.934 74.5619C129.672 75.401 129.726 78.2304 131.056 80.8814C132.385 83.5324 134.486 85.0012 135.748 84.1621Z" fill="white"/>
<path d="M134.053 78.8988C135.383 81.5501 137.014 83.3211 135.752 84.1635C134.49 85.0058 130.814 84.5847 129.485 81.9313C128.155 79.2779 129.362 75.6136 130.624 74.7713C131.886 73.9289 132.722 76.2412 134.053 78.8988Z" fill="#0975B8"/>
<path opacity="0.1" d="M145.891 59.7985C145.891 68.2705 140.856 76.4349 133.499 76.4349C129.965 76.4349 126.577 74.8186 124.078 71.9416C121.58 69.0645 120.176 65.1624 120.176 61.0936C120.176 57.0249 121.58 53.1227 124.078 50.2457C126.577 47.3686 129.965 45.7523 133.499 45.7523C140.856 45.7607 145.891 51.3245 145.891 59.7985Z" fill="black"/>
<path d="M133.499 76.0221C140.857 76.0221 146.822 69.1536 146.822 60.6808C146.822 52.208 140.857 45.3395 133.499 45.3395C126.141 45.3395 120.176 52.208 120.176 60.6808C120.176 69.1536 126.141 76.0221 133.499 76.0221Z" fill="#AE6E79"/>
<path d="M132.328 53.883C133.914 54.5548 134.852 56.4417 136.275 57.4925C138.287 58.9666 140.906 58.5855 143.203 57.8568C144.483 57.4546 145.822 56.9639 147.082 57.4104C147.267 57.5049 147.471 57.5384 147.672 57.5073C147.947 57.4167 148.082 57.0671 148.172 56.7555C149.73 51.4065 149.029 45.3479 146.677 40.3991C146.07 39.1229 145.342 37.8889 144.34 37.0023C143.55 36.3053 142.621 35.8483 141.685 35.4587C139.974 34.751 138.204 34.2479 136.403 33.9572C136.085 33.8907 135.76 33.8786 135.439 33.9214C134.999 34.0036 134.604 34.2773 134.21 34.5216C132.526 35.5611 130.659 36.1452 128.749 36.2295C126.189 36.3411 123.263 35.6461 121.29 37.5372C118.912 39.8052 119.505 44.2297 117.963 47.3085C116.943 49.3449 114.975 50.8232 114.651 53.1418C114.567 53.8504 114.606 54.5713 114.766 55.2624C115.52 58.8297 118.519 61.5927 121.716 61.6579C122.207 61.7011 122.698 61.5851 123.135 61.3231C123.421 61.0983 123.674 60.8217 123.883 60.5039C125.977 57.6483 128.373 52.2068 132.328 53.883Z" fill="#444053"/>
<path opacity="0.1" d="M148.172 55.2034C148.082 55.5151 147.947 55.8647 147.672 55.9552C147.472 55.9864 147.267 55.9529 147.082 55.8584C145.822 55.4119 144.476 55.9026 143.205 56.3048C140.906 57.0334 138.281 57.423 136.277 55.9405C134.852 54.8876 133.916 52.9923 132.329 52.331C128.373 50.6463 125.977 56.0963 123.878 58.9519C123.668 59.2696 123.416 59.5463 123.13 59.7711C122.693 60.0331 122.201 60.149 121.71 60.1059C118.525 60.0406 115.523 57.2777 114.761 53.7104C114.719 53.4998 114.682 53.2892 114.655 53.0786C114.655 53.0976 114.655 53.1144 114.646 53.1334C114.561 53.842 114.6 54.5629 114.761 55.254C115.514 58.8213 118.515 61.5842 121.71 61.6495C122.201 61.6927 122.693 61.5767 123.13 61.3147C123.416 61.0899 123.668 60.8133 123.878 60.4955C125.977 57.6399 128.373 52.1984 132.329 53.8746C133.916 54.5464 134.852 56.4333 136.277 57.4841C138.289 58.9582 140.906 58.5771 143.205 57.8484C144.485 57.4462 145.822 56.9555 147.082 57.402C147.267 57.4965 147.472 57.53 147.672 57.4988C147.947 57.4083 148.082 57.0587 148.172 56.7471C148.8 54.5584 149.078 52.2565 148.991 49.9535C148.937 51.7396 148.661 53.5075 148.172 55.2034Z" fill="black"/>
</g>
<defs>
<clipPath id="clip0">
<rect width="209.218" height="130" fill="white"/>
</clipPath>
</defs>
</svg>
