<svg width="183" height="40" viewBox="0 0 183 40" fill="none" xmlns="http://www.w3.org/2000/svg">
<g clip-path="url(#clip0)">
<path d="M17.44 33.4C15.0933 33.4 12.9467 33.0133 11 32.24C9.05333 31.44 7.37333 30.3333 5.96 28.92C4.57333 27.48 3.49333 25.7867 2.72 23.84C1.94667 21.8667 1.56 19.7067 1.56 17.36C1.56 15.0133 1.94667 12.8667 2.72 10.92C3.49333 8.97333 4.57333 7.29333 5.96 5.88C7.37333 4.44 9.05333 3.33333 11 2.56C12.9467 1.76 15.0933 1.36 17.44 1.36C19.7867 1.36 21.92 1.76 23.84 2.56C25.7867 3.33333 27.4667 4.44 28.88 5.88C30.2933 7.29333 31.3867 8.97333 32.16 10.92C32.9333 12.8667 33.32 15.0133 33.32 17.36C33.32 19.7067 32.9333 21.8667 32.16 23.84C31.3867 25.7867 30.2933 27.48 28.88 28.92C27.4667 30.3333 25.7867 31.44 23.84 32.24C21.92 33.0133 19.7867 33.4 17.44 33.4ZM17.44 29.64C19.76 29.64 21.8133 29.1067 23.6 28.04C25.3867 26.9467 26.7867 25.48 27.8 23.64C28.8133 21.7733 29.32 19.68 29.32 17.36C29.32 15.04 28.8133 12.96 27.8 11.12C26.7867 9.25333 25.3867 7.78667 23.6 6.72C21.8133 5.65333 19.76 5.12 17.44 5.12C15.12 5.12 13.0667 5.65333 11.28 6.72C9.49333 7.78667 8.09333 9.25333 7.08 11.12C6.06667 12.96 5.56 15.04 5.56 17.36C5.56 19.68 6.06667 21.7733 7.08 23.64C8.09333 25.48 9.49333 26.9467 11.28 28.04C13.0667 29.1067 15.12 29.64 17.44 29.64Z" fill="#499167"/>
<path d="M40.0075 36.11C39.5382 36.11 39.0908 36.0367 38.6655 35.89C38.2402 35.7433 37.8698 35.538 37.5545 35.274C37.2392 35.01 37.0082 34.7057 36.8615 34.361C36.7882 34.207 36.7882 34.064 36.8615 33.932C36.9422 33.8 37.0742 33.7157 37.2575 33.679C37.3895 33.6497 37.5178 33.6717 37.6425 33.745C37.7745 33.811 37.8735 33.9137 37.9395 34.053C38.0275 34.2363 38.1705 34.405 38.3685 34.559C38.5738 34.713 38.8195 34.8377 39.1055 34.933C39.3915 35.0283 39.6922 35.076 40.0075 35.076C40.3595 35.076 40.6822 35.021 40.9755 34.911C41.2762 34.801 41.5182 34.6433 41.7015 34.438C41.8848 34.2253 41.9765 33.965 41.9765 33.657C41.9765 33.2683 41.8225 32.92 41.5145 32.612C41.2138 32.304 40.7152 32.1133 40.0185 32.04C39.1092 31.952 38.3942 31.6843 37.8735 31.237C37.3528 30.7897 37.0925 30.236 37.0925 29.576C37.0925 29.092 37.2282 28.6813 37.4995 28.344C37.7708 28.0067 38.1375 27.75 38.5995 27.574C39.0688 27.398 39.5895 27.31 40.1615 27.31C40.8288 27.31 41.3752 27.4457 41.8005 27.717C42.2258 27.9883 42.5778 28.3477 42.8565 28.795C42.9592 28.9563 42.9995 29.1103 42.9775 29.257C42.9628 29.3963 42.8932 29.5063 42.7685 29.587C42.6292 29.675 42.4788 29.6933 42.3175 29.642C42.1562 29.5907 42.0352 29.4953 41.9545 29.356C41.7712 29.0407 41.5328 28.795 41.2395 28.619C40.9535 28.443 40.5832 28.3513 40.1285 28.344C39.5858 28.3367 39.1312 28.4393 38.7645 28.652C38.3978 28.8573 38.2145 29.1763 38.2145 29.609C38.2145 29.829 38.2695 30.0417 38.3795 30.247C38.4968 30.445 38.7058 30.6173 39.0065 30.764C39.3145 30.9107 39.7545 31.0133 40.3265 31.072C41.1992 31.16 41.8775 31.4277 42.3615 31.875C42.8528 32.315 43.0985 32.898 43.0985 33.624C43.0985 34.042 43.0105 34.405 42.8345 34.713C42.6658 35.021 42.4348 35.2813 42.1415 35.494C41.8555 35.6993 41.5255 35.8533 41.1515 35.956C40.7848 36.0587 40.4035 36.11 40.0075 36.11ZM48.4498 36.044C47.8411 36.044 47.2984 35.9157 46.8218 35.659C46.3524 35.395 45.9821 35.0357 45.7108 34.581C45.4468 34.119 45.3148 33.591 45.3148 32.997C45.3148 32.3957 45.4394 31.8677 45.6888 31.413C45.9454 30.951 46.2974 30.5917 46.7448 30.335C47.1921 30.071 47.7054 29.939 48.2848 29.939C48.8568 29.939 49.3481 30.0673 49.7588 30.324C50.1694 30.5733 50.4811 30.9217 50.6938 31.369C50.9138 31.809 51.0238 32.3187 51.0238 32.898C51.0238 33.0373 50.9761 33.1547 50.8808 33.25C50.7854 33.338 50.6644 33.382 50.5178 33.382H46.3378C46.4184 33.888 46.6494 34.3023 47.0308 34.625C47.4194 34.9403 47.8924 35.098 48.4498 35.098C48.6771 35.098 48.9081 35.0577 49.1428 34.977C49.3848 34.889 49.5791 34.79 49.7258 34.68C49.8358 34.5993 49.9531 34.559 50.0778 34.559C50.2098 34.5517 50.3234 34.5883 50.4188 34.669C50.5434 34.779 50.6094 34.9 50.6168 35.032C50.6241 35.164 50.5654 35.2777 50.4408 35.373C50.1914 35.571 49.8798 35.7323 49.5058 35.857C49.1391 35.9817 48.7871 36.044 48.4498 36.044ZM48.2848 30.885C47.7421 30.885 47.3058 31.0353 46.9758 31.336C46.6458 31.6367 46.4368 32.0253 46.3488 32.502H50.0118C49.9458 32.0327 49.7661 31.6477 49.4728 31.347C49.1794 31.039 48.7834 30.885 48.2848 30.885ZM54.7648 36C54.4421 36 54.1561 35.912 53.9068 35.736C53.6575 35.56 53.4631 35.3217 53.3238 35.021C53.1845 34.713 53.1148 34.361 53.1148 33.965V27.959C53.1148 27.7977 53.1661 27.6657 53.2688 27.563C53.3715 27.4603 53.5035 27.409 53.6648 27.409C53.8261 27.409 53.9581 27.4603 54.0608 27.563C54.1635 27.6657 54.2148 27.7977 54.2148 27.959V33.965C54.2148 34.2363 54.2661 34.46 54.3688 34.636C54.4715 34.812 54.6035 34.9 54.7648 34.9H55.0398C55.1865 34.9 55.3038 34.9513 55.3918 35.054C55.4871 35.1567 55.5348 35.2887 55.5348 35.45C55.5348 35.6113 55.4651 35.7433 55.3258 35.846C55.1865 35.9487 55.0068 36 54.7868 36H54.7648ZM58.9426 36C58.62 36 58.334 35.912 58.0846 35.736C57.8353 35.56 57.641 35.3217 57.5016 35.021C57.3623 34.713 57.2926 34.361 57.2926 33.965V27.959C57.2926 27.7977 57.344 27.6657 57.4466 27.563C57.5493 27.4603 57.6813 27.409 57.8426 27.409C58.004 27.409 58.136 27.4603 58.2386 27.563C58.3413 27.6657 58.3926 27.7977 58.3926 27.959V33.965C58.3926 34.2363 58.444 34.46 58.5466 34.636C58.6493 34.812 58.7813 34.9 58.9426 34.9H59.2176C59.3643 34.9 59.4816 34.9513 59.5696 35.054C59.665 35.1567 59.7126 35.2887 59.7126 35.45C59.7126 35.6113 59.643 35.7433 59.5036 35.846C59.3643 35.9487 59.1846 36 58.9646 36H58.9426Z" fill="black"/>
<path d="M38.1035 11C37.9422 11 37.8065 10.945 37.6965 10.835C37.5865 10.725 37.5315 10.5893 37.5315 10.428V2.981C37.5315 2.81233 37.5865 2.67667 37.6965 2.574C37.8065 2.464 37.9422 2.409 38.1035 2.409H40.7325C41.2312 2.409 41.6675 2.508 42.0415 2.706C42.4229 2.89667 42.7199 3.16433 42.9325 3.509C43.1525 3.85367 43.2625 4.24967 43.2625 4.697C43.2625 5.05633 43.1635 5.38267 42.9655 5.676C42.7749 5.962 42.5109 6.18933 42.1735 6.358C42.6575 6.47533 43.0462 6.70633 43.3395 7.051C43.6329 7.39567 43.7795 7.84667 43.7795 8.404C43.7795 8.91 43.6585 9.35733 43.4165 9.746C43.1819 10.1347 42.8519 10.4427 42.4265 10.67C42.0012 10.89 41.5135 11 40.9635 11H38.1035ZM38.6755 5.94H40.7325C41.1505 5.94 41.4915 5.83733 41.7555 5.632C42.0269 5.42667 42.1625 5.115 42.1625 4.697C42.1625 4.279 42.0269 3.971 41.7555 3.773C41.4915 3.56767 41.1505 3.465 40.7325 3.465H38.6755V5.94ZM38.6755 9.944H40.9635C41.4622 9.944 41.8729 9.81567 42.1955 9.559C42.5182 9.295 42.6795 8.91 42.6795 8.404C42.6795 7.93467 42.5182 7.58267 42.1955 7.348C41.8729 7.11333 41.4622 6.996 40.9635 6.996H38.6755V9.944ZM48.7807 11.055C48.2747 11.055 47.8201 10.9487 47.4167 10.736C47.0207 10.516 46.7054 10.197 46.4707 9.779C46.2434 9.361 46.1297 8.84767 46.1297 8.239V5.533C46.1297 5.37167 46.1811 5.23967 46.2837 5.137C46.3937 5.027 46.5294 4.972 46.6907 4.972C46.8521 4.972 46.9841 5.027 47.0867 5.137C47.1967 5.23967 47.2517 5.37167 47.2517 5.533V8.239C47.2517 8.86233 47.4167 9.32067 47.7467 9.614C48.0841 9.9 48.5021 10.043 49.0007 10.043C49.3161 10.043 49.5947 9.98067 49.8367 9.856C50.0861 9.73133 50.2841 9.56267 50.4307 9.35C50.5774 9.13733 50.6507 8.899 50.6507 8.635V5.533C50.6507 5.36433 50.7021 5.22867 50.8047 5.126C50.9147 5.02333 51.0504 4.972 51.2117 4.972C51.3804 4.972 51.5161 5.02333 51.6187 5.126C51.7214 5.22867 51.7727 5.36433 51.7727 5.533V10.439C51.7727 10.6003 51.7214 10.736 51.6187 10.846C51.5161 10.9487 51.3804 11 51.2117 11C51.0504 11 50.9147 10.9487 50.8047 10.846C50.7021 10.736 50.6507 10.6003 50.6507 10.439V10.318C50.4234 10.5453 50.1484 10.725 49.8257 10.857C49.5031 10.989 49.1547 11.055 48.7807 11.055ZM55.7068 13.64C55.6335 13.64 55.5455 13.618 55.4428 13.574C55.1201 13.4273 55.0321 13.1963 55.1788 12.881L56.2788 10.406L53.8038 5.709C53.7305 5.56967 53.7195 5.43767 53.7708 5.313C53.8295 5.181 53.9285 5.08567 54.0678 5.027C54.2071 4.96833 54.3391 4.96467 54.4638 5.016C54.5885 5.06 54.6838 5.15167 54.7498 5.291L56.7628 9.295L58.5338 5.302C58.6805 4.994 58.9115 4.906 59.2268 5.038C59.5568 5.17733 59.6485 5.40833 59.5018 5.731L56.1358 13.299C56.0478 13.5263 55.9048 13.64 55.7068 13.64Z" fill="black"/>
<path d="M41.3041 23.154C40.6074 23.154 40.0427 22.9633 39.6101 22.582C39.1847 22.2007 38.9721 21.6763 38.9721 21.009C38.9721 20.5103 39.1407 20.0593 39.4781 19.656C39.8154 19.2527 40.2591 18.831 40.8091 18.391L40.8751 18.347L40.3031 17.775C40.0537 17.5183 39.8631 17.2507 39.7311 16.972C39.5991 16.686 39.5331 16.3853 39.5331 16.07C39.5331 15.718 39.6211 15.4027 39.7971 15.124C39.9731 14.838 40.2151 14.6143 40.5231 14.453C40.8311 14.2917 41.1757 14.211 41.5571 14.211C41.9531 14.211 42.3014 14.2953 42.6021 14.464C42.9101 14.6327 43.1521 14.8637 43.3281 15.157C43.5041 15.4503 43.5921 15.7803 43.5921 16.147C43.5921 16.433 43.5407 16.6933 43.4381 16.928C43.3427 17.1627 43.1924 17.3937 42.9871 17.621C42.7817 17.841 42.5177 18.0793 42.1951 18.336L44.1751 20.316L45.0551 19.381C45.1651 19.2637 45.2677 19.1903 45.3631 19.161C45.4584 19.1317 45.5647 19.172 45.6821 19.282C45.9167 19.5093 45.9241 19.744 45.7041 19.986L44.8021 20.943L46.0231 22.164C46.1404 22.2813 46.2064 22.3913 46.2211 22.494C46.2357 22.5967 46.1844 22.7067 46.0671 22.824C45.8324 23.0587 45.5977 23.0587 45.3631 22.824L44.1531 21.614L44.0981 21.68C43.7167 22.1127 43.3024 22.4683 42.8551 22.747C42.4077 23.0183 41.8907 23.154 41.3041 23.154ZM41.0181 17.17L41.6011 17.753L41.7221 17.665C42.1107 17.357 42.3601 17.0857 42.4701 16.851C42.5801 16.6163 42.6387 16.3743 42.6461 16.125C42.6461 15.8463 42.5507 15.6043 42.3601 15.399C42.1767 15.1937 41.9091 15.091 41.5571 15.091C41.2344 15.091 40.9741 15.1863 40.7761 15.377C40.5781 15.5677 40.4791 15.7913 40.4791 16.048C40.4791 16.2387 40.5194 16.4257 40.6001 16.609C40.6881 16.7923 40.8274 16.9793 41.0181 17.17ZM40.0061 20.965C40.0061 21.3757 40.1197 21.6873 40.3471 21.9C40.5744 22.1053 40.8934 22.208 41.3041 22.208C41.7441 22.208 42.1254 22.109 42.4481 21.911C42.7781 21.7057 43.1117 21.427 43.4491 21.075L43.5261 20.987L41.4581 18.93L41.3151 19.04C40.9337 19.3407 40.6184 19.6487 40.3691 19.964C40.1271 20.272 40.0061 20.6057 40.0061 20.965Z" fill="black"/>
</g>
<path d="M80.1846 30.2844C78.5348 30.2844 77.0177 30 75.6334 29.4311C74.2491 28.8622 73.045 28.0658 72.021 27.0418C71.016 26.0178 70.229 24.8136 69.6601 23.4293C69.1102 22.045 68.8352 20.528 68.8352 18.8782C68.8352 17.2474 69.1102 15.7399 69.6601 14.3556C70.229 12.9713 71.016 11.7671 72.021 10.7431C73.045 9.71911 74.2491 8.92266 75.6334 8.35378C77.0177 7.78489 78.5348 7.50044 80.1846 7.50044C81.8154 7.50044 83.3229 7.78489 84.7072 8.35378C86.0915 8.92266 87.2957 9.71911 88.3197 10.7431C89.3437 11.7671 90.1306 12.9713 90.6806 14.3556C91.2494 15.7399 91.5339 17.2474 91.5339 18.8782C91.5339 20.528 91.2494 22.045 90.6806 23.4293C90.1306 24.8136 89.3437 26.0178 88.3197 27.0418C87.2957 28.0658 86.0915 28.8622 84.7072 29.4311C83.3229 30 81.8154 30.2844 80.1846 30.2844ZM80.1846 28.1796C81.493 28.1796 82.7066 27.952 83.8254 27.4969C84.9443 27.0228 85.9114 26.3686 86.7268 25.5342C87.5611 24.6809 88.2059 23.6948 88.661 22.576C89.1161 21.4382 89.3437 20.2056 89.3437 18.8782C89.3437 17.5698 89.1161 16.3561 88.661 15.2373C88.2059 14.0996 87.5611 13.1135 86.7268 12.2791C85.9114 11.4258 84.9443 10.7716 83.8254 10.3164C82.7066 9.84237 81.493 9.60533 80.1846 9.60533C78.8571 9.60533 77.634 9.84237 76.5152 10.3164C75.3964 10.7716 74.4198 11.4258 73.5854 12.2791C72.77 13.1135 72.1348 14.0996 71.6797 15.2373C71.2246 16.3561 70.997 17.5698 70.997 18.8782C70.997 20.2056 71.2246 21.4382 71.6797 22.576C72.1348 23.6948 72.77 24.6809 73.5854 25.5342C74.4198 26.3686 75.3964 27.0228 76.5152 27.4969C77.634 27.952 78.8571 28.1796 80.1846 28.1796ZM96.4803 30C96.158 30 95.8925 29.9052 95.6839 29.7156C95.4943 29.507 95.3994 29.2415 95.3994 28.9191V8.86578C95.3994 8.5434 95.4943 8.2874 95.6839 8.09777C95.8925 7.88918 96.158 7.78489 96.4803 7.78489C96.8027 7.78489 97.0587 7.88918 97.2483 8.09777C97.4569 8.2874 97.5612 8.5434 97.5612 8.86578V21.808L105.583 14.5547C106.076 14.1185 106.54 14.1375 106.976 14.6116C107.185 14.8391 107.28 15.0856 107.261 15.3511C107.261 15.5976 107.147 15.8157 106.919 16.0053L101.231 21.1538L107.147 28.4356C107.564 28.9476 107.517 29.4216 107.005 29.8578C106.758 30.0664 106.502 30.1517 106.237 30.1138C105.971 30.0948 105.744 29.9621 105.554 29.7156L99.6946 22.5191L97.5612 24.4818V28.9191C97.5612 29.2415 97.4569 29.507 97.2483 29.7156C97.0587 29.9052 96.8027 30 96.4803 30ZM116.689 30.1422C115.229 30.1422 113.92 29.8009 112.764 29.1182C111.607 28.4166 110.687 27.4684 110.005 26.2738C109.341 25.0791 109.009 23.7327 109.009 22.2347C109.009 20.7176 109.35 19.3618 110.033 18.1671C110.735 16.9724 111.683 16.0338 112.877 15.3511C114.072 14.6495 115.418 14.2987 116.917 14.2987C118.415 14.2987 119.752 14.6495 120.927 15.3511C122.122 16.0338 123.061 16.9724 123.743 18.1671C124.445 19.3618 124.805 20.7176 124.824 22.2347V28.9191C124.824 29.2415 124.72 29.507 124.511 29.7156C124.303 29.9052 124.037 30 123.715 30C123.392 30 123.127 29.9052 122.918 29.7156C122.71 29.507 122.605 29.2415 122.605 28.9191V27.184C121.961 28.0942 121.126 28.8148 120.102 29.3458C119.078 29.8767 117.941 30.1422 116.689 30.1422ZM116.917 28.1511C118.016 28.1511 118.993 27.8951 119.846 27.3831C120.719 26.8711 121.401 26.1695 121.894 25.2782C122.406 24.368 122.662 23.3535 122.662 22.2347C122.662 21.0969 122.406 20.0824 121.894 19.1911C121.401 18.2999 120.719 17.5982 119.846 17.0862C118.993 16.5553 118.016 16.2898 116.917 16.2898C115.836 16.2898 114.859 16.5553 113.987 17.0862C113.114 17.5982 112.422 18.2999 111.91 19.1911C111.398 20.0824 111.142 21.0969 111.142 22.2347C111.142 23.3535 111.398 24.368 111.91 25.2782C112.422 26.1695 113.114 26.8711 113.987 27.3831C114.859 27.8951 115.836 28.1511 116.917 28.1511ZM128.942 30C128.278 30 127.946 29.6681 127.946 29.0044C127.946 28.6821 128.022 28.445 128.174 28.2933L137.475 16.432H128.828C128.164 16.432 127.832 16.1001 127.832 15.4364C127.832 14.7727 128.164 14.4409 128.828 14.4409H139.381C140.044 14.4409 140.376 14.7727 140.376 15.4364C140.376 15.7209 140.319 15.939 140.206 16.0907L130.904 28.0089H139.495C140.158 28.0089 140.49 28.3407 140.49 29.0044C140.49 29.6681 140.158 30 139.495 30H128.942ZM145.406 30C145.065 30 144.79 29.9052 144.581 29.7156C144.392 29.507 144.297 29.232 144.297 28.8907V15.5502C144.297 15.2089 144.392 14.9434 144.581 14.7538C144.79 14.5452 145.065 14.4409 145.406 14.4409C145.728 14.4409 145.984 14.5452 146.174 14.7538C146.383 14.9434 146.487 15.2089 146.487 15.5502V28.8907C146.487 29.232 146.383 29.507 146.174 29.7156C145.984 29.9052 145.728 30 145.406 30ZM145.378 11.4827C144.96 11.4827 144.6 11.331 144.297 11.0276C143.993 10.7241 143.842 10.3544 143.842 9.91822C143.842 9.44415 143.993 9.07437 144.297 8.80889C144.619 8.52444 144.989 8.38222 145.406 8.38222C145.804 8.38222 146.155 8.52444 146.459 8.80889C146.781 9.07437 146.942 9.44415 146.942 9.91822C146.942 10.3544 146.79 10.7241 146.487 11.0276C146.184 11.331 145.814 11.4827 145.378 11.4827ZM154.311 36.7698C154.159 36.7698 153.989 36.7319 153.799 36.656C153.154 36.3716 152.974 35.9164 153.259 35.2907L156.103 29.0613L156.075 29.0329L149.731 15.8916C149.599 15.6071 149.58 15.3416 149.675 15.0951C149.769 14.8486 149.959 14.659 150.243 14.5262C150.869 14.2418 151.324 14.403 151.609 15.0098L157.155 26.7004L162.446 15.0382C162.731 14.4314 163.186 14.2607 163.811 14.5262C164.456 14.7917 164.636 15.2373 164.352 15.8631L155.136 36.1156C154.946 36.5517 154.671 36.7698 154.311 36.7698ZM173.321 30.1422C171.804 30.1422 170.448 29.8009 169.253 29.1182C168.059 28.4356 167.12 27.4969 166.437 26.3022C165.755 25.1076 165.413 23.7517 165.413 22.2347C165.413 20.6987 165.755 19.3333 166.437 18.1387C167.12 16.944 168.059 16.0053 169.253 15.3227C170.448 14.64 171.804 14.2987 173.321 14.2987C174.838 14.2987 176.184 14.64 177.36 15.3227C178.555 16.0053 179.493 16.944 180.176 18.1387C180.859 19.3333 181.21 20.6987 181.229 22.2347C181.229 23.7517 180.878 25.1076 180.176 26.3022C179.493 27.4969 178.555 28.4356 177.36 29.1182C176.184 29.8009 174.838 30.1422 173.321 30.1422ZM173.321 28.1511C174.421 28.1511 175.407 27.8951 176.279 27.3831C177.152 26.8711 177.834 26.1695 178.327 25.2782C178.82 24.387 179.067 23.3724 179.067 22.2347C179.067 21.0969 178.82 20.0824 178.327 19.1911C177.834 18.2809 177.152 17.5698 176.279 17.0578C175.407 16.5458 174.421 16.2898 173.321 16.2898C172.221 16.2898 171.235 16.5458 170.363 17.0578C169.49 17.5698 168.798 18.2809 168.286 19.1911C167.793 20.0824 167.547 21.0969 167.547 22.2347C167.547 23.3724 167.793 24.387 168.286 25.2782C168.798 26.1695 169.49 26.8711 170.363 27.3831C171.235 27.8951 172.221 28.1511 173.321 28.1511Z" fill="black"/>
<defs>
<clipPath id="clip0">
<rect width="96" height="40" fill="white"/>
</clipPath>
</defs>
</svg>
